inDegrees=no
num_controls=7
num_derivatives=13
num_iterations=84
num_multipliers=7
num_parameters=0
num_slacks=7
num_states=26
objective=0.345990
objective_accelerations=0.031895
objective_balance=0.002018
objective_effort=0.061645
objective_height=0.245645
objective_ligament=0.004787
solver_duration=955.548940
status=Solve_Succeeded
success=true
DataType=double
version=3
OpenSimVersion=4.5
endheader
time	/jointset/ground_pelvis/pelvis_tilt/value	/jointset/ground_pelvis/pelvis_tx/value	/jointset/ground_pelvis/pelvis_ty/value	/jointset/hip_r/hip_flexion_r/value	/jointset/hip_r/hip_adduction_r/value	/jointset/hip_r/hip_rotation_r/value	/jointset/back/lumbar_extension/value	/jointset/patellofemoral_r/patellar_flexion_r/value	/jointset/knee_r/knee_flexion_r/value	/jointset/knee_r/knee_adduction_r/value	/jointset/knee_r/knee_rotation_r/value	/jointset/ankle_r/ankle_angle_r/value	/jointset/subtalar_r/subtalar_angle_r/value	/jointset/ground_pelvis/pelvis_tilt/speed	/jointset/ground_pelvis/pelvis_tx/speed	/jointset/ground_pelvis/pelvis_ty/speed	/jointset/hip_r/hip_flexion_r/speed	/jointset/hip_r/hip_adduction_r/speed	/jointset/hip_r/hip_rotation_r/speed	/jointset/back/lumbar_extension/speed	/jointset/patellofemoral_r/patellar_flexion_r/speed	/jointset/knee_r/knee_flexion_r/speed	/jointset/knee_r/knee_adduction_r/speed	/jointset/knee_r/knee_rotation_r/speed	/jointset/ankle_r/ankle_angle_r/speed	/jointset/subtalar_r/subtalar_angle_r/speed	/forceset/tau_hip_flexion_r	/forceset/tau_hip_adduction_r	/forceset/tau_hip_rotation_r	/forceset/tau_knee_flexion_r	/forceset/tau_ankle_angle_r	/forceset/tau_subtalar_angle_r	/forceset/tau_lumbar_extension	lambda_cid13_p0	lambda_cid14_p0	lambda_cid14_p1	lambda_cid14_p2	lambda_cid14_p3	lambda_cid14_p4	lambda_cid14_p5	/jointset/ground_pelvis/pelvis_tilt/accel	/jointset/ground_pelvis/pelvis_tx/accel	/jointset/ground_pelvis/pelvis_ty/accel	/jointset/hip_r/hip_flexion_r/accel	/jointset/hip_r/hip_adduction_r/accel	/jointset/hip_r/hip_rotation_r/accel	/jointset/back/lumbar_extension/accel	/jointset/patellofemoral_r/patellar_flexion_r/accel	/jointset/knee_r/knee_flexion_r/accel	/jointset/knee_r/knee_adduction_r/accel	/jointset/knee_r/knee_rotation_r/accel	/jointset/ankle_r/ankle_angle_r/accel	/jointset/subtalar_r/subtalar_angle_r/accel	gamma_cid13_p0	gamma_cid14_p0	gamma_cid14_p1	gamma_cid14_p2	gamma_cid14_p3	gamma_cid14_p4	gamma_cid14_p5
0	0.001535468070902931	0.127119129944007	0.9345492098974761	0.1934211968871041	-0.2135636405527751	-0.239414868250129	-0.2903787966825928	0.2311786273363426	0.2311786273363406	0.1009994618150686	0.162315156269543	0.089344008118978	0.08197817116962469	0	0	0	0	0	0	0	0	0	0	0	0	0	0.1932438469440168	-0.05025749734150147	0.001983131229240026	-0.2009375551053859	0.01262760445278679	-0.06172042789952251	-0.1438964345893866	-29.51161567345261	-35.19054954471471	-27.51190008700942	-1.422715791167643	68.2007832807065	-489.5611607171502	39.54463237605113	-3.333353766399596	-6.062635488837122	-2.655583440570815	29.76492229101835	0.1246582497505405	6.106775631262937	-18.24963889689689	33.79046189204301	33.7904618920429	-9.214031304083278	1.842071224877344	9.608756881152457	3.013651591660474	3.741850996155063e-07	3.591453775785716e-07	-3.14077455757447e-06	3.560659125560346e-06	5.150288169519364e-08	3.95306232530911e-06	-3.693103509942313e-06
0.01	0.001385749550780916	0.1268218465726663	0.934419911212318	0.1948687486746476	-0.2135535809086742	-0.23911157941966	-0.2912902136417101	0.2328393105331204	0.232839310533115	0.1005383775079492	0.1623999034984007	0.08981989659268641	0.08213224853785386	-0.02990070870765022	-0.0588995413001789	-0.02583327426250026	0.2874903903554782	0.001940045775582014	0.06037471125517455	-0.1803212157940832	0.329783733561146	0.3297837335611463	-0.09136978928660605	0.01655307313003221	0.09461858212232446	0.03057588781351974	0.1826956085015727	-0.0504537427528405	0.002221229371454798	-0.1977567656734127	0.01405836152574297	-0.05887513480989699	-0.1327981718277126	-29.53180171303053	-34.67668454220383	-26.18652149467524	-1.633675750924613	63.69053838848149	-494.0041311784739	41.59774768060209	-2.812050635926751	-5.720033204777584	-2.5424393912715	27.93809261688358	0.2179886898585005	5.961051014305004	-17.62903651640105	32.21931838203092	32.21931838203096	-8.971574674590707	1.503151056263539	9.304578346801808	3.043547002506203	5.13464943670241e-07	2.61512104978175e-07	-4.327770602328086e-06	3.999859935150648e-06	2.923100774259616e-07	3.543703468374435e-06	-4.425917928203208e-06
0.02	0.0009382997009894169	0.12595228383749	0.9340332317900991	0.1991306034075617	-0.2135262586171391	-0.2382128970483093	-0.2939459774779136	0.2377272289242837	0.2377272289242835	0.09918897092124793	0.1626384265984004	0.09122520478142319	0.08258488270948	-0.05954626593447388	-0.1144558727671104	-0.05147614741220728	0.5628605890737983	0.003452529487017607	0.119078708176761	-0.3488693754176529	0.6454470388775153	0.6454470388775133	-0.1776644559188717	0.03075517422795929	0.1858839430058246	0.05971136067937921	0.1721473700591464	-0.05064998816416947	0.002459327513695536	-0.1945759762414233	0.01548911859870963	-0.05602984172025632	-0.1216999090660365	-29.58877496781136	-33.87212069667648	-24.86467573839684	-1.781881626498929	59.54066867433156	-493.6185229893013	42.78610364100106	-3.282323470234337	-5.393993522187616	-2.61750321801217	27.34088396358675	0.03914583692125904	5.772632764545325	-15.89502766279426	30.96637624308768	30.96637624308703	-8.199006773215203	1.371876818456316	8.938112633387622	2.725568602128433	6.527447877249758e-07	1.638788323777783e-07	-5.514766647081701e-06	4.439060744740949e-06	5.331172731567295e-07	3.13434461143976e-06	-5.158732346464103e-06
0.03	0.0001919464014202577	0.1245443116961422	0.9333884113832387	0.2060867455529736	-0.2134878312367566	-0.2367409168381698	-0.2982232899682059	0.245697139933394	0.2456971399333907	0.09700776124605734	0.1630099949583888	0.09352325879081351	0.08331875647440277	-0.08964131413514352	-0.1665373928096917	-0.07764924401750968	0.8260868790309838	0.004114951026118733	0.1745067746663017	-0.5045996441514431	0.9458536253815503	0.945853625381553	-0.257506294482241	0.04341578373547253	0.2729852711217857	0.08674333989994787	0.1602901900422334	-0.04851448302392666	0.002678550669403815	-0.1908065664365329	0.0177425389739831	-0.05401122239534863	-0.1106078340253278	-29.67504997742171	-32.56544045148257	-23.88301535462719	-1.796961239284153	54.8794093300418	-488.9376908241005	42.45742058065762	-2.860671054990625	-5.024949244917703	-2.64078417549633	25.47135985479782	0.06204078793074956	5.307227393854871	-15.11300470538333	29.17543810797303	29.17543810797419	-7.716570351356705	1.192624697090882	8.484969938473053	2.643666781801922	5.639198681988513e-07	6.939507444176711e-08	-5.045707869497143e-06	3.198991514134752e-06	5.61004862574724e-07	2.46154239902053e-06	-4.026463882029547e-06
0.04	-0.0008528724921538263	0.1226335807544439	0.9324771457515841	0.2156067222665617	-0.2134463295458787	-0.2347387892025969	-0.303998100791176	0.2565906444583251	0.2565906444583258	0.09406017359454658	0.1635040637494939	0.09667009148891754	0.08431328087148744	-0.1192393847361202	-0.2150076328372262	-0.1047651923710092	1.075627502708706	0.004067391586264621	0.2251081932637002	-0.6483690419537159	1.230165742042054	1.230165742042065	-0.3309400511839672	0.05525526045066771	0.3556396807486559	0.1118414871117503	0.1484330100253367	-0.04637897788367817	0.002897773825136333	-0.1870371566316296	0.01999595934926399	-0.05199260307043226	-0.09951575898461318	-29.78022654024977	-31.04541680691041	-22.90620050872883	-1.76305728339308	50.40466191710839	-480.7684214420468	41.51021028614725	-3.182927950295821	-4.671737519178216	-2.806073567651594	24.60375070769416	-0.102850358869785	4.80730318611691	-13.50285347649084	27.74748227438142	27.74748227438151	-6.917390400886568	1.207650259992701	8.048728935569461	2.338802200375211	4.703917576710597e-07	-2.502374504755577e-08	-4.542503631658187e-06	1.924298158988421e-06	5.845023570171974e-07	1.783308364838731e-06	-2.855740100426012e-06
0.05	-0.002196292922737447	0.1202559346212226	0.9312876790236484	0.2275614598303566	-0.2134098560461017	-0.2322519931873304	-0.3111464048560826	0.2702497627028599	0.2702497627028621	0.09041258659652518	0.1641095116133649	0.1006211528836877	0.0855479868005246	-0.1493893918232063	-0.259937671404637	-0.1334289061544628	1.313256883291876	0.003242427142784732	0.2715072843531252	-0.7793963725614889	1.499141018149287	1.499141018149295	-0.397794736291304	0.06547411510360392	0.4338878683641001	0.1349773123447421	0.136733678002589	-0.04470435921311363	0.003204578880568637	-0.1835827242759927	0.0227444886728934	-0.04919415218020812	-0.08946797196105903	-29.8918427832165	-29.12054687641769	-21.54727978700312	-1.758712917676299	45.76838950777665	-469.4700092439084	40.9963806549308	-2.922756597196094	-4.315931574764019	-2.941282043456493	23.03306472979061	-0.07038755631006442	4.445139046460427	-12.61836308308031	26.09492364896983	26.09492364896929	-6.452687272419693	0.8753883706901447	7.610228366573952	2.28212999062239	4.389704128502351e-07	4.538420493232389e-09	-4.256543337911453e-06	1.549444831424052e-06	5.240341554667544e-07	1.613293118343029e-06	-2.486392014591982e-06
0.06	-0.003839557326045763	0.117446529192479	0.9298026228059256	0.2418305977992179	-0.2133812458046051	-0.2293234208659496	-0.3195481202730973	0.2865231083824852	0.2865231083824888	0.08611981680608742	0.1648064250843083	0.1053341690930205	0.0870102824430639	-0.1792081792815478	-0.3013594919416897	-0.1638830903284219	1.538507583721537	0.002494739930384077	0.3134634544867566	-0.8990513123756587	1.753011229059543	1.753011229059548	-0.4599766096691397	0.07354838186638306	0.5080306436612273	0.1573594298121836	0.1250343459798644	-0.04302974054254632	0.003511383935975765	-0.1801282919203387	0.02549301799653023	-0.04639570128997772	-0.07942018493749281	-29.99536676786177	-27.06561674569706	-20.19153916785054	-1.724209157263909	41.16224745373864	-456.1068769116161	40.18868584380736	-3.116684024546976	-3.97009391310658	-3.164167645752701	22.12801467699252	-0.08739491265393642	3.918718994958229	-11.22837531777033	24.72646923498612	24.72646923498613	-5.98282805498637	0.7787326819612802	7.227646471906084	2.188060647265187	4.101640897433881e-07	3.93208380352884e-08	-3.979730157600181e-06	1.21247950502103e-06	4.600305561902939e-07	1.464676557644636e-06	-2.150786063316668e-06
